{"title":"Hrafninn flýgur aka When the Raven Flies (1984)","uid":11362732,"size":2032637418,"categoryP":"video","categoryS":"movies","magnet":"?xt=urn:btih:b968b359746da7e03a41f2da203899cd2a4c3b1a&amp;dn=Hrafninn+fl%26yacute%3Bgur+aka+When+the+Raven+Flies+%281984%29&amp;tr=udp%3A%2F%2Ftracker.openbittorrent.com%3A80&amp;tr=udp%3A%2F%2Fopen.demonii.com%3A1337&amp;tr=udp%3A%2F%2Ftracker.coppersurfer.tk%3A6969&amp;tr=udp%3A%2F%2Fexodus.desync.com%3A6969","seeders":4,"leechers":1,"uploader":"cavallone","files":1,"time":1414975012,"description":"Plot: Ireland: Vikings pillage the land, seeking silver and slaves, slaying men and women in the process. A young boy is spared when a Viking takes pity on him instead of killing him. Iceland 20 years later: The boy returns to take his revenge on the killers, the Norwegian foster brothers; Tord and Eirik, by cunning and hidden weapons.\n\n\nRip specs:\n\nGeneral\nUnique ID                                : 172021752502848660153566194329027044215 (0x816A2F365A87AD1F95253B814EC36377)\nComplete name                            : When the Raven Flies (1984).mkv\nFormat                                   : Matroska\nFormat version                           : Version 4 / Version 2\nFile size                                : 1.89 GiB\nDuration                                 : 1h 44mn\nOverall bit rate                         : 2 582 Kbps\nEncoded date                             : UTC 2014-10-12 20:03:01\nWriting application                      : mkvmerge v6.1.0 ('Old Devil') built on Mar  2 2013 14:32:37\nWriting library                          : libebml v1.3.0 + libmatroska v1.4.0\n\nVideo\nID                                       : 1\nFormat                                   : AVC\nFormat/Info                              : Advanced Video Codec\nFormat profile                           : &lt;a class=&quot;__cf_email__&quot; href=&quot;/cdn-cgi/l/email-protection&quot; data-cfemail=&quot;afe7c6c8c7efe39b819f&quot;&gt;[email&amp;#160;protected]&lt;/a&gt;&lt;script cf-hash='f9e31' type=&quot;text/javascript&quot;&gt;\n/* &lt;![CDATA[ */!function(){try{var t=&quot;currentScript&quot;in document?document.currentScript:function(){for(var t=document.getElementsByTagName(&quot;script&quot;),e=t.length;e--;)if(t[e].getAttribute(&quot;cf-hash&quot;))return t[e]}();if(t&amp;&amp;t.previousSibling){var e,r,n,i,c=t.previousSibling,a=c.getAttribute(&quot;data-cfemail&quot;);if(a){for(e=&quot;&quot;,r=parseInt(a.substr(0,2),16),n=2;a.length-n;n+=2)i=parseInt(a.substr(n,2),16)^r,e+=String.fromCharCode(i);e=document.createTextNode(e),c.parentNode.replaceChild(e,c)}}}catch(u){}}();/* ]]&gt; */&lt;/script&gt;\nFormat settings, CABAC                   : Yes\nFormat settings, ReFrames                : 16 frames\nCodec ID                                 : V_MPEG4/ISO/AVC\nDuration                                 : 1h 44mn\nBit rate                                 : 2 307 Kbps\nWidth                                    : 692 pixels\nHeight                                   : 496 pixels\nDisplay aspect ratio                     : 3:2\nFrame rate mode                          : Constant\nFrame rate                               : 25.000 fps\nColor space                              : YUV\nChroma subsampling                       : 4:2:0\nBit depth                                : 8 bits\nScan type                                : Progressive\nBits/(Pixel*Frame)                       : 0.269\nStream size                              : 1.69 GiB (89%)\nWriting library                          : x264 core 130 r2273 b3065e6\nEncoding settings                        : cabac=1 / ref=16 / deblock=1:-3:-3 / analyse=0x3:0x133 / me=umh / subme=11 / psy=1 / psy_rd=1.00:0.00 / mixed_ref=1 / me_range=32 / chroma_me=1 / trellis=2 / 8x8dct=1 / cqm=0 / deadzone=21,11 / fast_pskip=1 / chroma_qp_offset=-2 / threads=3 / lookahead_threads=1 / sliced_threads=0 / nr=0 / decimate=1 / interlaced=0 / bluray_compat=0 / constrained_intra=0 / bframes=12 / b_pyramid=2 / b_adapt=2 / b_bias=0 / direct=3 / weightb=1 / open_gop=0 / weightp=2 / keyint=250 / keyint_min=25 / scenecut=40 / intra_refresh=0 / rc_lookahead=60 / rc=crf / mbtree=1 / crf=19.3 / qcomp=0.70 / qpmin=0 / qpmax=69 / qpstep=4 / ip_ratio=1.40 / aq=1:1.00\nLanguage                                 : Icelandic\nDefault                                  : Yes\nForced                                   : No\nColor primaries                          : BT.601 PAL\nTransfer characteristics                 : BT.709\nMatrix coefficients                      : BT.601\n\nAudio\nID                                       : 2\nFormat                                   : AC-3\nFormat/Info                              : Audio Coding 3\nMode extension                           : CM (complete main)\nFormat settings, Endianness              : Big\nCodec ID                                 : A_AC3\nDuration                                 : 1h 44mn\nBit rate mode                            : Constant\nBit rate                                 : 224 Kbps\nChannel(s)                               : 2 channels\nChannel positions                        : Front: L R\nSampling rate                            : 48.0 KHz\nBit depth                                : 16 bits\nCompression mode                         : Lossy\nStream size                              : 168 MiB (9%)\nLanguage                                 : Icelandic\nDefault                                  : Yes\nForced                                   : No\n\nText #1\nID                                       : 3\nFormat                                   : VobSub\nMuxing mode                              : zlib\nCodec ID                                 : S_VOBSUB\nCodec ID/Info                            : The same subtitle format used on DVDs\nLanguage                                 : Icelandic\nDefault                                  : No\nForced                                   : No\n\nText #2\nID                                       : 4\nFormat                                   : VobSub\nMuxing mode                              : zlib\nCodec ID                                 : S_VOBSUB\nCodec ID/Info                            : The same subtitle format used on DVDs\nLanguage                                 : English\nDefault                                  : Yes\nForced                                   : No\n\nText #3\nID                                       : 5\nFormat                                   : VobSub\nMuxing mode                              : zlib\nCodec ID                                 : S_VOBSUB\nCodec ID/Info                            : The same subtitle format used on DVDs\nLanguage                                 : German\nDefault                                  : No\nForced                                   : No\n\nText #4\nID                                       : 6\nFormat                                   : VobSub\nMuxing mode                              : zlib\nCodec ID                                 : S_VOBSUB\nCodec ID/Info                            : The same subtitle format used on DVDs\nLanguage                                 : Swedish\nDefault                                  : No\nForced                                   : No\n\nText #5\nID                                       : 7\nFormat                                   : VobSub\nMuxing mode                              : zlib\nCodec ID                                 : S_VOBSUB\nCodec ID/Info                            : The same subtitle format used on DVDs\nLanguage                                 : Arabic\nDefault                                  : No\nForced                                   : No\n\nMenu\n00:00:00.000                             : en:Chapter 1\n00:02:28.240                             : en:Chapter 2\n00:12:36.800                             : en:Chapter 3\n00:13:43.680                             : en:Chapter 4\n00:17:59.840                             : en:Chapter 5\n00:22:18.040                             : en:Chapter 6\n00:26:38.680                             : en:Chapter 7\n00:31:35.320                             : en:Chapter 8\n00:34:11.800                             : en:Chapter 9\n00:38:19.480                             : en:Chapter 10\n00:41:33.880                             : en:Chapter 11\n00:44:30.040                             : en:Chapter 12\n00:47:28.600                             : en:Chapter 13\n00:53:50.960                             : en:Chapter 14\n00:58:59.240                             : en:Chapter 15\n01:02:25.160                             : en:Chapter 16\n01:07:05.480                             : en:Chapter 17\n01:08:42.240                             : en:Chapter 18\n01:11:08.920                             : en:Chapter 19\n01:11:29.560                             : en:Chapter 20\n01:15:14.920                             : en:Chapter 21\n01:19:40.360                             : en:Chapter 22\n01:28:41.560                             : en:Chapter 23\n01:29:49.720                             : en:Chapter 24\n01:32:10.040                             : en:Chapter 25\n01:37:59.080                             : en:Chapter 27\n01:42:10.000                             : en:Chapter 28\n01:43:15.760                             : en:Chapter 29\n\n\nMy rip.\n\nLanguage: Icelandic","torrent":{"xt":"urn:btih:b968b359746da7e03a41f2da203899cd2a4c3b1a","amp;dn":"Hrafninn+fl%26yacute%3Bgur+aka+When+the+Raven+Flies+%281984%29","amp;tr":["udp%3A%2F%2Ftracker.openbittorrent.com%3A80","udp%3A%2F%2Fopen.demonii.com%3A1337","udp%3A%2F%2Ftracker.coppersurfer.tk%3A6969","udp%3A%2F%2Fexodus.desync.com%3A6969"],"infoHash":"b968b359746da7e03a41f2da203899cd2a4c3b1a","infoHashBuffer":{"type":"Buffer","data":[185,104,179,89,116,109,167,224,58,65,242,218,32,56,153,205,42,76,59,26]},"announce":[],"urlList":[]}}